<?xml version="1.0" encoding="UTF-8"?>
<!DOCTYPE svg PUBLIC "-//W3C//DTD SVG 1.1//EN" "http://www.w3.org/Graphics/SVG/1.1/DTD/svg11.dtd">
<!-- Creator: CorelDRAW X7 -->
<svg xmlns="http://www.w3.org/2000/svg" xml:space="preserve" width="10in" height="10in" version="1.1" style="shape-rendering:geometricPrecision; text-rendering:geometricPrecision; image-rendering:optimizeQuality; fill-rule:evenodd; clip-rule:evenodd"
viewBox="0 0 10000 10000"
 xmlns:xlink="http://www.w3.org/1999/xlink">
 <defs>
  <style type="text/css">
   <![CDATA[
    .fil6 {fill:white}
    .fil9 {fill:white;fill-rule:nonzero}
    .fil5 {fill:white;fill-opacity:0.501961}
    .fil4 {fill:white;fill-opacity:0.501961}
    .fil3 {fill:white;fill-rule:nonzero;fill-opacity:0.501961}
    .fil0 {fill:url(#id4)}
    .fil1 {fill:url(#id5)}
    .fil8 {fill:url(#id6)}
    .fil7 {fill:url(#id7)}
    .fil2 {fill:url(#id8);fill-rule:nonzero}
   ]]>
  </style>
    <mask id="id0">
  <linearGradient id="id1" gradientUnits="userSpaceOnUse" x1="2499.19" y1="5455.3" x2="1709.4" y2="4789.03">
   <stop offset="0" style="stop-opacity:1; stop-color:white"/>
   <stop offset="1" style="stop-opacity:0; stop-color:white"/>
  </linearGradient>
     <rect style="fill:url(#id1)" x="1601" y="4710" width="1007" height="825"/>
    </mask>
    <mask id="id2">
  <linearGradient id="id3" gradientUnits="userSpaceOnUse" x1="4625.78" y1="754.752" x2="6342.05" y2="5012.89">
   <stop offset="0" style="stop-opacity:1; stop-color:white"/>
   <stop offset="0.639216" style="stop-opacity:-127.502; stop-color:white"/>
   <stop offset="1" style="stop-opacity:0; stop-color:white"/>
  </linearGradient>
     <rect style="fill:url(#id3)" x="2303" y="416" width="6362" height="4935"/>
    </mask>
  <linearGradient id="id4" gradientUnits="userSpaceOnUse" x1="201.654" y1="6919.26" x2="9224.92" y2="3081.52">
   <stop offset="0" style="stop-opacity:1; stop-color:#D9D936"/>
   <stop offset="0.388235" style="stop-opacity:1; stop-color:#4F4F17"/>
   <stop offset="0.819608" style="stop-opacity:1; stop-color:#696C3C"/>
   <stop offset="1" style="stop-opacity:1; stop-color:#696C3C"/>
  </linearGradient>
  <linearGradient id="id5" gradientUnits="userSpaceOnUse" x1="3674.15" y1="1125.05" x2="3321.58" y2="2761.87">
   <stop offset="0" style="stop-opacity:1; stop-color:#D9D936"/>
   <stop offset="0.388235" style="stop-opacity:1; stop-color:#1C1C0D"/>
   <stop offset="0.819608" style="stop-opacity:1; stop-color:#696C3C"/>
   <stop offset="1" style="stop-opacity:1; stop-color:#767B3F"/>
  </linearGradient>
  <linearGradient id="id6" gradientUnits="userSpaceOnUse" xlink:href="#id4" x1="2065.96" y1="2536.26" x2="2170.49" y2="3010.36">
  </linearGradient>
  <linearGradient id="id7" gradientUnits="userSpaceOnUse" x1="2066.24" y1="929.551" x2="2211" y2="1233.26">
   <stop offset="0" style="stop-opacity:1; stop-color:#D9D936"/>
   <stop offset="0.419608" style="stop-opacity:1; stop-color:#4F4F17"/>
   <stop offset="0.819608" style="stop-opacity:1; stop-color:#696C3C"/>
   <stop offset="1" style="stop-opacity:1; stop-color:#696C3C"/>
  </linearGradient>
  <linearGradient id="id8" gradientUnits="userSpaceOnUse" x1="7593.1" y1="2738.73" x2="3374.73" y2="7261.26">
   <stop offset="0" style="stop-opacity:1; stop-color:#C4C40E"/>
   <stop offset="0.580392" style="stop-opacity:1; stop-color:#DEDE33"/>
   <stop offset="1" style="stop-opacity:1; stop-color:#C4C40E"/>
  </linearGradient>
 </defs>
 <g id="Layer_x0020_1">
  <metadata id="CorelCorpID_0Corel-Layer"/>
  <g id="_254098056">
   <path class="fil0" d="M8092 1389l-1641 450 -1152 -21 25 21 27 25 26 25 25 25 24 26 23 26 23 26 21 27 21 28 20 27 19 28 18 29 17 29 17 29 15 30 15 30 0 13 -1357 348 0 -11 -13 -27 -14 -26 -14 -26 -16 -25 -16 -25 -17 -25 -17 -24 -18 -24 -20 -24 -19 -23 -21 -23 -22 -23 -22 -22 -23 -22 -23 -22 -25 -21 -25 -21 -26 -21 -27 -20 -27 -20 -29 -19 -29 -19 -29 -19 -31 -19 -31 -18 -32 -18 -33 -17 -34 -17 -34 -17 -35 -16 -36 -16 -37 -16 -26 -9 -26 -9 -26 -8 -26 -9 -26 -8 -26 -7 -25 -8 -25 -7 -25 -7 -25 -6 -25 -7 -25 -6 -24 -5 -25 -6 -24 -5 -24 -5 -24 -5 -23 -4 -24 -4 -23 -4 -23 -4 -23 -3 -23 -3 -23 -3 -22 -2 -23 -2 -22 -2 -22 -2 -22 -1 -22 -1 -21 -1 -22 0 -1357 -25 0 -28 31 -45 30 -43 29 -42 28 -41 27 -39 26 -38 25 -37 24 -35 23 -33 23 -32 21 -31 21 -29 19 -28 18 -26 18 -25 17 -24 15 -22 15 -21 14 -19 13 -18 12 -16 11 -15 10 -14 9 -12 8 -11 7 -9 6 -8 5 -6 5 -5 3 -4 3 -2 1040 -571 -3 2 -4 4 -5 6 -6 7 -7 9 -8 11 -9 12 -11 14 -11 15 -12 17 -14 19 -14 20 -16 22 -17 23 -17 25 -19 27 -20 28 -21 30 -22 32 -23 33 -25 35 -25 36 -26 38 -28 40 -28 41 -30 43 -30 45 -32 46 -33 48 -34 49 -35 51 0 32 1538 30 24 0 25 1 24 2 25 1 25 2 25 2 26 3 25 3 26 3 26 3 26 4 26 4 26 4 27 5 27 5 27 5 27 6 27 6 28 6 28 7 27 7 29 7 28 7 28 8 29 8 29 9 28 9 30 9 29 9 29 10 30 10 30 10 41 18 41 18 40 19 39 19 38 19 37 20 36 20 36 21 34 21 34 21 33 22 32 22 31 23 30 23 4 3 1326 -412 1524 30zm-6757 1922l32 -46 31 -44 30 -42 29 -42 27 -39 27 -39 26 -37 25 -35 24 -34 23 -33 22 -31 21 -29 20 -28 19 -27 18 -25 17 -24 16 -23 15 -21 14 -19 13 -18 12 -17 11 -15 10 -14 9 -12 8 -11 7 -9 6 -8 6 -6 4 -6 3 -3 2 -2 1 -1 1038 -356 -1 1 -2 2 -4 4 -5 6 -5 7 -7 9 -8 11 -10 12 -10 14 -11 16 -13 17 -13 19 -15 20 -16 22 -17 24 -18 26 -19 27 -21 28 -21 31 -23 32 -24 33 -25 36 -26 37 -27 38 -28 40 -29 42 -31 44 -31 45 -33 47 -34 48 -35 50 -36 52 0 5 1 5 2 4 3 3 3 3 5 2 5 1 5 1 3449 51 0 12 -1 13 0 12 -1 12 0 12 -1 12 -1 12 -2 12 -1 12 -1 12 -2 12 -2 12 -2 12 -2 12 -2 11 -2 12 -2 12 -3 12 -1 5 1270 -202 1055 15 -1638 240 -698 -10 -3 10 -3 12 -4 11 -3 12 -4 11 -4 12 -4 11 -4 12 -5 11 -4 12 -31 76 -34 74 -36 72 -40 69 -42 67 -44 64 -48 61 -50 60 -53 57 -56 54 -59 52 -61 49 -65 47 -67 45 -70 42 -72 39 -76 38 -78 34 -81 32 -84 30 -87 27 -90 25 -92 23 -95 19 -98 18 -101 15 -104 12 -107 10 -109 7 -1067 53 -7 751 3 5 10 13 17 21 23 29 30 37 36 44 43 53 50 60 56 69 63 76 69 84 76 92 82 100 89 108 96 115 102 123 109 132 115 139 122 146 128 155 134 162 141 170 148 178 154 185 160 193 167 201 174 208 179 216 186 224 192 231 199 239 205 246 -1394 -523 -182 -217 -175 -210 -170 -204 -165 -197 -158 -191 -153 -184 -148 -176 -141 -171 -136 -163 -131 -157 -124 -149 -119 -143 -114 -136 -107 -130 -102 -122 -96 -115 -90 -109 -84 -102 -79 -95 -73 -87 -67 -81 -61 -75 -55 -67 -50 -60 -43 -53 -38 -46 -32 -40 -27 -32 -20 -26 -15 -18 -8 -11 -3 -5 6 -719 12 -27 1004 -61 -12 32 -1 64 35 -3 94 -9 92 -11 89 -13 87 -15 84 -17 81 -20 80 -22 76 -24 74 -26 72 -29 69 -30 67 -33 64 -35 62 -37 59 -39 57 -41 54 -44 52 -46 50 -48 47 -50 44 -52 42 -54 40 -57 37 -59 35 -61 32 -63 30 -65 27 -67 4 -10 4 -10 4 -10 3 -11 4 -10 3 -10 3 -10 3 -10 3 -11 3 -10 3 -10 2 -10 3 -11 2 -10 3 -10 2 -11 2 -10 2 -10 1 -11 2 -10 2 -11 1 -10 1 -11 2 -10 1 -11 1 -11 0 -10 1 -11 0 -11 1 -10 0 -11 0 -11 -3045 -43 -5 -1 -5 -1 -4 -1 -3 -3 -2 -3 -2 -3 -1 -4 0 -5z"/>
   <polygon class="fil1" points="2332,1277 3870,1307 3894,1307 3919,1308 3943,1310 3968,1311 3993,1313 4018,1315 4044,1318 4069,1321 4095,1324 4121,1327 4147,1331 4173,1335 4199,1339 4226,1344 4253,1349 4280,1354 4307,1360 4334,1366 4362,1372 4390,1379 4417,1386 4446,1393 4474,1400 4502,1408 4531,1416 4560,1425 4588,1434 4618,1443 4647,1452 4676,1462 4706,1472 4736,1482 4777,1500 4818,1518 4858,1537 4897,1556 4935,1575 4972,1595 5008,1615 5044,1636 5078,1657 5112,1678 5145,1700 5177,1722 5208,1745 5238,1768 5270,1794 5324,1839 5351,1864 5377,1889 5402,1914 5426,1940 5449,1966 5472,1992 5493,2019 5514,2047 5534,2074 5553,2102 5571,2131 5588,2160 5605,2189 5620,2219 5635,2249 5635,2262 4278,2610 4278,2599 4265,2572 4251,2546 4237,2520 4221,2495 4205,2470 4188,2445 4171,2421 4153,2397 4133,2373 4114,2350 4093,2327 4071,2304 4049,2282 4026,2260 4003,2238 3978,2217 3953,2196 3927,2175 3900,2155 3873,2135 3844,2116 3815,2097 3786,2078 3755,2059 3724,2041 3692,2023 3659,2006 3625,1989 3591,1972 3556,1956 3520,1940 3483,1924 3457,1915 3431,1906 3405,1898 3379,1889 3353,1881 3327,1874 3302,1866 3277,1859 3252,1852 3227,1846 3202,1839 3177,1833 3153,1828 3128,1822 3104,1817 3080,1812 3056,1807 3033,1803 3009,1799 2986,1795 2963,1791 2940,1788 2917,1785 2894,1782 2872,1780 2849,1778 2827,1776 2805,1774 2783,1773 2761,1772 2740,1771 2718,1771 1361,1746 "/>
   <polygon class="fil2" points="2918,416 8665,540 8665,553 8634,601 8603,648 8574,693 8545,737 8517,779 8490,820 8464,860 8439,898 8414,935 8391,970 8368,1004 8346,1037 8325,1068 8305,1098 8286,1126 8267,1153 8250,1178 8233,1202 8217,1225 8202,1246 8188,1266 8175,1284 8163,1301 8152,1316 8141,1330 8131,1343 8123,1354 8115,1364 8108,1372 8101,1379 8096,1385 8092,1389 6568,1359 6587,1383 6606,1408 6624,1432 6642,1458 6660,1483 6677,1509 6694,1535 6711,1561 6727,1588 6742,1614 6758,1642 6773,1669 6787,1697 6801,1725 6815,1754 6828,1783 6841,1812 6854,1841 6866,1871 6878,1901 6889,1931 6900,1962 6911,1993 6921,2024 6931,2056 6940,2087 6949,2119 6957,2152 6966,2185 6973,2218 6981,2251 6988,2285 8607,2312 8614,2314 8620,2316 8625,2319 8629,2322 8632,2325 8635,2329 8636,2333 8637,2338 8603,2389 8570,2438 8538,2485 8507,2532 8478,2576 8449,2619 8422,2660 8395,2700 8370,2738 8345,2774 8322,2809 8300,2842 8279,2873 8258,2903 8239,2931 8221,2958 8204,2983 8188,3006 8174,3028 8160,3048 8147,3067 8135,3084 8124,3099 8115,3113 8106,3125 8099,3135 8092,3144 8087,3151 8082,3157 8079,3161 8077,3163 8075,3164 7020,3149 7018,3176 7014,3203 7010,3231 7006,3259 7000,3288 6994,3317 6988,3346 6980,3375 6972,3405 6964,3435 6954,3466 6944,3496 6934,3528 6922,3559 6910,3591 6898,3623 6884,3656 6871,3688 6856,3722 6841,3755 6825,3789 6808,3823 6791,3858 6773,3892 6755,3928 6736,3963 6716,3999 6695,4035 6674,4072 6652,4108 6630,4146 6607,4183 6576,4221 6545,4258 6515,4294 6484,4329 6454,4364 6424,4397 6393,4430 6363,4462 6333,4493 6303,4523 6273,4552 6243,4581 6213,4608 6184,4635 6154,4661 6125,4686 6095,4710 6066,4733 6036,4756 6007,4778 5978,4798 5949,4818 5920,4838 5891,4856 5862,4873 5834,4890 5805,4906 5777,4920 5748,4934 5720,4948 5691,4960 5663,4971 5611,4996 5558,5020 5506,5043 5454,5065 5402,5087 5350,5107 5299,5127 5247,5146 5196,5164 5145,5182 5093,5199 5042,5214 4992,5230 4941,5244 4890,5257 4840,5270 4789,5282 4739,5293 4689,5303 4639,5313 4589,5321 4540,5329 4490,5336 4441,5343 4392,5348 4342,5353 4293,5357 4245,5360 4196,5362 4147,5364 4099,5365 4051,5365 4050,5377 4051,5382 4052,5387 4054,5392 4056,5399 4059,5406 4063,5414 4068,5423 4074,5433 4080,5443 4087,5454 4094,5466 4103,5479 4112,5492 4122,5506 4132,5521 4143,5536 4155,5553 4168,5570 4182,5588 4196,5606 4211,5626 4227,5646 4243,5667 4260,5688 4278,5711 4297,5734 4316,5758 4336,5782 4357,5808 4379,5834 4401,5861 4424,5888 7230,9393 7229,9557 7228,9563 7227,9568 7224,9572 7221,9576 7217,9578 7211,9580 7205,9582 7198,9582 5955,9584 5750,9338 5551,9099 5359,8868 5173,8644 4994,8428 4820,8220 4653,8019 4493,7826 4339,7641 4191,7463 4050,7293 3916,7131 3788,6976 3666,6830 3551,6691 3442,6559 3340,6436 3244,6321 3155,6213 3073,6113 2997,6021 2928,5937 2865,5861 2809,5792 2759,5732 2716,5679 2680,5635 2650,5598 2627,5569 2610,5548 2600,5535 2597,5530 2605,4714 2617,4682 2636,4685 2656,4688 2675,4691 2694,4693 2714,4696 2734,4698 2754,4701 2775,4703 2796,4705 2816,4708 2837,4710 2859,4712 2880,4714 2902,4715 2924,4717 2946,4719 2968,4720 2990,4722 3013,4723 3036,4725 3059,4726 3082,4727 3105,4728 3129,4729 3153,4730 3177,4731 3201,4731 3225,4732 3250,4733 3275,4733 3300,4734 3325,4734 3443,4734 3558,4731 3671,4726 3780,4719 3887,4709 3991,4697 4092,4682 4190,4664 4285,4645 4377,4622 4467,4597 4554,4570 4638,4540 4719,4508 4797,4474 4873,4436 4945,4397 5015,4355 5082,4310 5147,4263 5208,4214 5267,4162 5323,4108 5376,4051 5426,3991 5474,3930 5518,3866 5560,3799 5600,3730 5636,3658 5670,3584 5701,3508 5705,3496 5710,3485 5714,3473 5718,3462 5722,3450 5726,3439 5729,3427 5733,3416 5736,3404 5739,3392 5743,3381 5746,3369 5748,3358 5751,3346 5754,3334 5756,3322 5758,3310 5760,3299 5762,3287 5764,3275 5766,3263 5768,3251 5769,3239 5770,3227 5772,3215 5773,3203 5774,3191 5774,3179 5775,3167 5775,3155 5776,3142 5776,3130 2327,3079 2322,3078 2317,3077 2312,3075 2309,3072 2306,3069 2304,3065 2303,3060 2303,3055 2339,3003 2374,2953 2408,2905 2441,2858 2472,2813 2503,2769 2532,2727 2560,2687 2587,2649 2613,2612 2638,2576 2662,2543 2685,2511 2706,2480 2727,2452 2746,2425 2764,2399 2781,2375 2797,2353 2812,2333 2825,2314 2838,2297 2849,2281 2859,2267 2869,2255 2877,2244 2884,2235 2889,2228 2894,2222 2898,2218 2900,2216 2901,2215 5635,2262 5635,2249 5620,2219 5605,2189 5588,2160 5571,2131 5553,2102 5534,2074 5514,2047 5493,2019 5472,1992 5449,1966 5426,1940 5402,1914 5377,1889 5351,1864 5324,1839 5296,1815 5268,1791 5238,1768 5208,1745 5177,1722 5145,1700 5112,1678 5078,1657 5044,1636 5008,1615 4972,1595 4935,1575 4897,1556 4858,1537 4818,1518 4777,1500 4736,1482 4706,1472 4676,1462 4647,1452 4618,1443 4588,1434 4560,1425 4531,1416 4502,1408 4474,1400 4446,1393 4417,1386 4390,1379 4362,1372 4334,1366 4307,1360 4280,1354 4253,1349 4226,1344 4199,1339 4173,1335 4147,1331 4121,1327 4095,1324 4069,1321 4044,1318 4018,1315 3993,1313 3968,1311 3943,1310 3919,1308 3894,1307 3870,1307 2332,1277 2332,1245 2367,1194 2401,1145 2434,1097 2466,1051 2496,1006 2526,963 2554,922 2582,882 2608,844 2633,808 2658,773 2681,740 2703,708 2724,678 2744,650 2763,623 2780,598 2797,575 2813,553 2827,533 2841,514 2853,497 2864,482 2875,468 2884,456 2892,445 2899,436 2905,429 2910,423 2914,419 2917,417 "/>
   <path class="fil3" d="M6988 2285l-7 -34 -8 -33 -7 -33 -9 -33 -8 -33 -9 -32 -9 -31 -10 -32 -10 -31 -11 -31 -11 -31 -11 -30 -12 -30 -12 -30 -13 -29 -13 -29 -13 -29 -14 -29 -14 -28 -14 -28 -15 -27 -16 -28 -15 -26 -16 -27 -17 -26 -17 -26 -17 -26 -18 -25 -18 -26 -18 -24 -19 -25 -20 -23c-2,1 305,455 417,927m-3090 -980l-24 0c0,0 1339,-126 1784,949l-19 -7 -15 -30 -15 -30 -17 -29 -17 -29 -18 -29 -19 -28 -20 -27 -21 -28 -21 -27 -23 -26 -23 -26 -24 -26 -25 -25 -26 -25 -27 -25 -28 -24 -28 -24 -30 -23 -30 -23 -31 -23 -32 -22 -33 -22 -34 -21 -34 -21 -36 -21 -36 -20 -37 -20 -38 -19 -39 -19 -40 -19 -41 -18 -41 -18 -30 -10 -30 -10 -29 -10 -29 -9 -30 -9 -28 -9 -29 -9 -29 -8 -28 -8 -28 -7 -29 -7 -27 -7 -28 -7 -28 -6 -27 -6 -27 -6 -27 -5 -27 -5 -27 -5 -26 -4 -26 -4 -26 -4 -26 -3 -26 -3 -25 -3 -26 -3 -25 -2 -25 -2 -25 -1 -24 -2 -25 -1z"/>
   <path class="fil4" d="M4198 3099l1584 27c0,0 35,575 -598,1113 0,0 619,-421 622,-1135 0,0 -1608,-5 -1608,-5z"/>
   <path class="fil4" d="M6995 3164c0,0 -130,918 -831,1464 0,0 605,-521 831,-1464z"/>
   <path class="fil4" d="M8331 2309l275 4c0,0 31,5 30,25l-121 178c0,0 108,-164 111,-182 10,-21 -293,-26 -295,-25z"/>
   <path class="fil4" d="M6569 1359l496 10 4 -7c0,0 -500,-2 -500,-3z"/>
   <path class="fil4" d="M3541 435l-626 -17 -530 754 536 -746c0,0 621,8 620,9z"/>
   <path class="fil4" d="M3115 2220l-213 -5 -2 1 -19 24 -302 422 323 -440c0,0 212,-2 213,-2z"/>
   <path class="fil5" d="M2369 2961l-66 94c0,0 -3,24 27,24l24 0c-16,-1 -35,-3 -42,-17 -4,-11 57,-101 57,-101z"/>
   <path class="fil4" d="M2605 4720l0 -6 12 -32 41 6 -40 -4c0,0 -13,36 -13,36z"/>
   <path class="fil6" style="mask:url(#id0)" d="M1604 5478c0,0 0,-809 989,-763l11 1 -11 815c0,0 -925,-51 -989,-53z"/>
   <polygon class="fil7" points="1361,1746 1361,1718 1392,1673 1422,1630 1451,1588 1479,1547 1506,1508 1532,1470 1557,1433 1581,1398 1604,1365 1627,1333 1648,1302 1669,1273 1688,1245 1706,1219 1724,1194 1741,1170 1756,1148 1771,1127 1785,1108 1798,1090 1810,1074 1821,1059 1831,1045 1840,1033 1848,1022 1855,1013 1861,1005 1866,999 1871,994 1874,990 1877,988 2917,417 2914,419 2910,423 2905,429 2899,436 2892,445 2884,456 2875,468 2864,482 2853,497 2841,514 2827,533 2813,553 2797,575 2780,598 2763,623 2744,650 2724,678 2703,708 2681,740 2658,773 2633,808 2608,844 2582,882 2554,922 2526,963 2496,1006 2466,1051 2434,1097 2401,1145 2367,1194 2332,1245 2332,1277 "/>
   <polygon class="fil8" points="1357,3332 1352,3331 1347,3330 1343,3329 1340,3326 1338,3323 1336,3320 1335,3316 1335,3311 1367,3265 1398,3221 1428,3179 1457,3137 1484,3098 1511,3059 1537,3022 1562,2987 1586,2953 1609,2920 1631,2889 1652,2860 1672,2832 1691,2805 1709,2780 1726,2756 1742,2733 1757,2712 1771,2693 1784,2675 1796,2658 1807,2643 1817,2629 1826,2617 1834,2606 1841,2597 1847,2589 1853,2583 1857,2577 1860,2574 1862,2572 1863,2571 2901,2215 2900,2216 2898,2218 2894,2222 2889,2228 2884,2235 2877,2244 2869,2255 2859,2267 2849,2281 2838,2297 2825,2314 2812,2333 2797,2353 2781,2375 2764,2399 2746,2425 2727,2452 2706,2480 2685,2511 2662,2543 2638,2576 2613,2612 2587,2649 2560,2687 2532,2727 2503,2769 2472,2813 2441,2858 2408,2905 2374,2953 2339,3003 2303,3055 2303,3060 2304,3065 2306,3069 2309,3072 2312,3075 2317,3077 2322,3078 2327,3079 "/>
   <path class="fil9" style="mask:url(#id2)" d="M2918 416l5747 124 0 13 -31 48 -31 47 -29 45 -29 44 -28 42 -27 41 -26 40 -25 38 -25 37 -23 35 -23 34 -22 33 -21 31 -20 30 -19 28 -19 27 -17 25 -17 24 -16 23 -15 21 -14 20 -13 18 -12 17 -11 15 -11 14 -10 13 -8 11 -8 10 -7 8 -7 7 -5 6 -4 4 -1524 -30 19 24 19 25 18 24 18 26 18 25 17 26 17 26 17 26 16 27 15 26 16 28 15 27 14 28 14 28 14 29 13 29 13 29 13 29 12 30 12 30 11 30 11 31 11 31 10 31 10 32 9 31 9 32 8 33 9 33 7 33 8 33 7 34 1619 27 7 2 6 2 5 3 4 3 3 3 3 4 1 4 1 5 -34 51 -33 49 -32 47 -31 47 -29 44 -29 43 -27 41 -27 40 -25 38 -25 36 -23 35 -10 15c-943,168 -1828,440 -2653,784l11 -24 31 -76 4 -12 5 -11 4 -12 4 -11 4 -12 4 -11 3 -12 4 -11 3 -12 3 -12 4 -11 3 -12 2 -11 3 -12 3 -12 2 -12 2 -12 2 -11 2 -12 2 -12 2 -12 2 -12 1 -12 1 -12 2 -12 1 -12 1 -12 0 -12 1 -12 0 -12 1 -13 0 -12 -3449 -51 -5 -1 -5 -1 -5 -2 -3 -3 -3 -3 -2 -4 -1 -5 0 -5 36 -52 35 -50 34 -48 33 -47 31 -45 31 -44 29 -42 28 -40 27 -38 26 -37 25 -36 24 -33 23 -32 21 -31 21 -28 19 -27 18 -26 17 -24 16 -22 15 -20 13 -19 13 -17 11 -16 10 -14 10 -12 8 -11 7 -9 5 -7 5 -6 4 -4 2 -2 1 -1 2734 47 0 -13 -15 -30 -15 -30 -17 -29 -17 -29 -18 -29 -19 -28 -20 -27 -21 -28 -21 -27 -23 -26 -23 -26 -24 -26 -25 -25 -26 -25 -27 -25 -28 -24 -28 -24 -30 -23 -30 -23 -31 -23 -32 -22 -33 -22 -34 -21 -34 -21 -36 -21 -36 -20 -37 -20 -38 -19 -39 -19 -40 -19 -41 -18 -41 -18 -30 -10 -30 -10 -29 -10 -29 -9 -30 -9 -28 -9 -29 -9 -29 -8 -28 -8 -28 -7 -29 -7 -27 -7 -28 -7 -28 -6 -27 -6 -27 -6 -27 -5 -27 -5 -27 -5 -26 -4 -26 -4 -26 -4 -26 -3 -26 -3 -25 -3 -26 -3 -25 -2 -25 -2 -25 -1 -24 -2 -25 -1 -24 0 -1538 -30 0 -32 35 -51 34 -49 33 -48 32 -46 30 -45 30 -43 28 -41 28 -40 26 -38 25 -36 25 -35 23 -33 22 -32 21 -30 20 -28 19 -27 17 -25 17 -23 16 -22 14 -20 14 -19 12 -17 11 -15 11 -14 9 -12 8 -11 7 -9 6 -7 5 -6 4 -4 3 -2 1 -1zm-319 4936l6 -638 12 -32 19 3 20 3 19 3 19 2 20 3 20 2 20 3 21 2 21 2 20 3 21 2 22 2 21 2 22 1 22 2 22 2 22 1 22 2 23 1 23 2 23 1 23 1 23 1 24 1 24 1 24 1 24 0 24 1 25 1 25 0 25 1 25 0 118 0 66 -2c-317,200 -620,408 -910,620z"/>
  </g>
 </g>
</svg>
